<svg xmlns="http://www.w3.org/2000/svg" viewBox="0 0 49 49" width="49" height="49">
	<style>
		tspan { white-space:pre }
		.shp0 { fill: #e8663c } 
	</style>
	<g id="Features">
		<g id="Portfolio">
			<path id="icon" class="shp0" d="M47.99 27.93L47.99 22.05L43.07 21.65C42.9 20.69 42.64 19.74 42.32 18.83L46.38 16.04L43.44 10.94L38.98 13.06C38.35 12.32 37.66 11.63 36.92 11L39.04 6.54L33.94 3.6L31.14 7.66C30.23 7.34 29.29 7.08 28.32 6.91L27.93 1.99L22.05 1.99L21.65 6.91C20.68 7.08 19.74 7.34 18.83 7.66L16.04 3.6L10.94 6.54L13.06 11C12.32 11.63 11.63 12.32 11 13.06L6.54 10.94L3.6 16.04L7.66 18.83C7.33 19.74 7.08 20.69 6.9 21.66L1.99 22.05L1.99 27.93L6.9 28.33C7.08 29.29 7.33 30.24 7.66 31.15L3.6 33.94L6.54 39.04L11 36.92C11.63 37.66 12.32 38.35 13.06 38.98L10.94 43.44L16.04 46.38L18.83 42.32C19.74 42.65 20.68 42.9 21.65 43.07L22.05 47.99L27.93 47.99L28.32 43.07C29.29 42.9 30.23 42.65 31.14 42.32L33.94 46.38L39.04 43.44L36.92 38.98C37.66 38.35 38.35 37.66 38.98 36.92L43.44 39.04L46.38 33.94L42.32 31.15C42.64 30.24 42.9 29.29 43.07 28.33L47.99 27.93ZM24.99 36.49C18.64 36.49 13.49 31.34 13.49 24.99C13.49 18.64 18.64 13.49 24.99 13.49C31.34 13.49 36.49 18.64 36.49 24.99C36.49 31.34 31.34 36.49 24.99 36.49Z" />
		</g>
	</g>
</svg>