<svg xmlns="http://www.w3.org/2000/svg" viewBox="0 0 52 43" width="52" height="43">
	<style>
		tspan { white-space:pre }
		.shp0 { fill: #e8663c } 
	</style>
	<g id="Features">
		<g id="Work">
			<path id="icon" class="shp0" d="M50.19 10.15L42.46 2.41C41.56 1.51 40.1 1.51 39.2 2.41L21.08 20.54L13.66 13.12C12.76 12.22 11.31 12.22 10.41 13.12L2.67 20.85C1.77 21.75 1.77 23.21 2.67 24.11L11.42 32.85C11.5 32.97 11.59 33.08 11.69 33.18L19.42 40.91C19.85 41.34 20.44 41.59 21.05 41.59C21.66 41.59 22.25 41.34 22.68 40.91L50.19 13.4C50.62 12.97 50.86 12.38 50.86 11.77C50.86 11.16 50.62 10.58 50.19 10.15Z" />
		</g>
	</g>
</svg>